<svg viewBox="0 0 229 35"  fill="none" xmlns="http://www.w3.org/2000/svg"><path d="M.784.4V34H7.12V21.712h7.488c6.192 0 10.752-4.224 10.752-10.656S20.944.4 14.608.4H.784zM7.12 6.16h6.864c3.024 0 5.04 1.92 5.04 4.896s-2.016 4.896-5.04 4.896H7.12V6.16zM34.673.4h-6.048V34h6.048V.4zm4.622 15.264l4.896 3.168c1.488-2.496 3.456-4.128 6.624-4.128 3.264 0 4.992 1.776 4.992 4.032v.576l-9.12 1.008c-4.56.48-7.872 3.12-7.872 6.912 0 4.56 3.552 7.44 8.928 7.44 5.04 0 6.72-2.448 7.488-4.032h.672V34h5.952V18.784c0-5.568-4.224-9.264-10.704-9.264-5.808 0-9.024 2.592-11.856 6.144zm5.856 11.232c0-1.392 1.104-2.208 3.36-2.496l7.296-.864v.384c0 3.264-2.352 5.76-6.576 5.76-2.688 0-4.08-1.152-4.08-2.784zm20.331-4.8c0 7.392 5.472 12.576 12.384 12.576 6.672 0 10.848-3.696 12-9.12l-5.952-1.488c-.624 3.12-2.304 5.232-5.952 5.232-3.888 0-6.432-2.88-6.432-7.2s2.784-7.2 6.432-7.2c3.648 0 5.52 2.4 5.952 5.28l5.952-1.536c-1.248-5.424-5.376-9.12-12-9.12-6.912 0-12.384 5.184-12.384 12.576zm26.672-.192c0 7.392 5.136 12.768 12.24 12.768 6.384 0 9.168-3.36 10.8-5.856l-4.944-2.88c-.816 1.68-2.592 3.552-5.952 3.552-3.456 0-5.712-2.448-5.952-5.616h17.328V21.52c0-7.152-4.656-12-11.568-12-7.008 0-11.952 5.184-11.952 12.384zm6.24-2.256c.48-2.928 2.256-4.944 5.664-4.944 3.12 0 5.04 1.92 5.472 4.944H98.394zm21.028-9.456V34h6.048V19.504c0-2.976 1.824-4.416 4.32-4.416 2.304 0 3.888 1.248 3.888 3.456V34h6.048V19.504c0-2.976 1.824-4.416 4.32-4.416 2.304 0 3.888 1.248 3.888 3.456V34h6.048V18.064c0-4.944-3.504-8.256-7.872-8.256-3.792 0-5.712 1.824-6.768 4.032h-.672c-1.008-2.4-3.264-4.032-6.336-4.032-3.312 0-5.28 1.632-6.288 3.936h-.672v-3.552h-5.952zm38.889 5.472l4.896 3.168c1.488-2.496 3.456-4.128 6.624-4.128 3.264 0 4.992 1.776 4.992 4.032v.576l-9.12 1.008c-4.56.48-7.872 3.12-7.872 6.912 0 4.56 3.552 7.44 8.928 7.44 5.04 0 6.72-2.448 7.488-4.032h.672V34h5.952V18.784c0-5.568-4.224-9.264-10.704-9.264-5.808 0-9.024 2.592-11.856 6.144zm5.856 11.232c0-1.392 1.104-2.208 3.36-2.496l7.296-.864v.384c0 3.264-2.352 5.76-6.576 5.76-2.688 0-4.08-1.152-4.08-2.784zm27.723-16.704h-5.952V34h6.048V20.56c0-3.36 2.208-4.992 5.28-4.992h3.552v-5.472h-2.304c-3.024 0-5.04.912-5.952 3.552h-.672v-3.456zm36.769 0h-8.448l-9.696 8.16h-.576V.4h-6.048V34h6.048v-8.208l3.648-3.024L221.267 34h7.008l-10.416-14.832 10.8-8.976z" fill="currentColor"/></svg>
