<?xml version="1.0" encoding="UTF-8"?>
<svg xmlns="http://www.w3.org/2000/svg" xmlns:xlink="http://www.w3.org/1999/xlink" width="15" height="15" viewBox="0 0 15 15" version="1.1">
<g id="surface1">
<path style=" stroke:none;fill-rule:nonzero;fill:rgb(0%,0%,0%);fill-opacity:1;" d="M 9.355469 10.402344 C 9.320312 11.738281 8.699219 12.410156 7.5 12.421875 C 6.292969 12.410156 5.679688 11.738281 5.65625 10.402344 L 5.65625 4.8125 C 5.679688 3.492188 6.292969 2.820312 7.5 2.796875 C 8.699219 2.820312 9.320312 3.492188 9.355469 4.8125 Z M 3.761719 10.511719 C 3.777344 11.726562 4.164062 12.660156 4.929688 13.316406 C 5.648438 13.96875 6.503906 14.300781 7.5 14.3125 C 8.523438 14.300781 9.398438 13.96875 10.113281 13.316406 C 10.84375 12.660156 11.222656 11.726562 11.246094 10.511719 L 11.246094 4.695312 C 11.222656 3.476562 10.84375 2.539062 10.113281 1.882812 C 9.398438 1.230469 8.523438 0.90625 7.5 0.90625 C 6.503906 0.90625 5.648438 1.230469 4.929688 1.882812 C 4.164062 2.539062 3.777344 3.476562 3.761719 4.695312 Z M 3.761719 10.511719 "/>
</g>
</svg>
