<?xml version="1.0" encoding="UTF-8"?>
<svg xmlns="http://www.w3.org/2000/svg" xmlns:xlink="http://www.w3.org/1999/xlink" width="15" height="15" viewBox="0 0 15 15" version="1.1">
<g id="surface1">
<path style=" stroke:none;fill-rule:nonzero;fill:rgb(0%,0%,0%);fill-opacity:1;" d="M 3.65625 14.148438 L 11.171875 14.148438 L 11.171875 12.257812 L 6.132812 12.257812 L 10.378906 6.9375 C 10.90625 6.261719 11.171875 5.492188 11.171875 4.621094 C 11.160156 3.539062 10.796875 2.640625 10.078125 1.9375 C 9.371094 1.222656 8.453125 0.863281 7.320312 0.851562 C 6.304688 0.863281 5.453125 1.21875 4.757812 1.917969 C 4.070312 2.636719 3.703125 3.542969 3.65625 4.640625 L 5.535156 4.640625 C 5.601562 4.039062 5.8125 3.570312 6.171875 3.238281 C 6.515625 2.90625 6.945312 2.742188 7.464844 2.742188 C 8.050781 2.753906 8.5 2.941406 8.820312 3.3125 C 9.128906 3.679688 9.28125 4.109375 9.28125 4.605469 C 9.28125 4.792969 9.257812 4.992188 9.210938 5.203125 C 9.136719 5.425781 9 5.667969 8.804688 5.925781 L 3.65625 12.367188 Z M 3.65625 14.148438 "/>
</g>
</svg>
