<?xml version="1.0" encoding="UTF-8"?>
<svg xmlns="http://www.w3.org/2000/svg" xmlns:xlink="http://www.w3.org/1999/xlink" width="15" height="15" viewBox="0 0 15 15" version="1.1">
<g id="surface1">
<path style=" stroke:none;fill-rule:nonzero;fill:rgb(0%,0%,0%);fill-opacity:1;" d="M 6.316406 8.242188 L 7.109375 8.242188 C 7.695312 8.242188 8.179688 8.417969 8.558594 8.777344 C 8.945312 9.144531 9.144531 9.664062 9.15625 10.332031 C 9.144531 10.988281 8.945312 11.496094 8.558594 11.851562 C 8.179688 12.230469 7.710938 12.421875 7.15625 12.421875 C 6.636719 12.421875 6.222656 12.28125 5.90625 11.996094 C 5.601562 11.726562 5.363281 11.367188 5.191406 10.929688 L 3.300781 10.929688 C 3.507812 12.027344 3.957031 12.863281 4.648438 13.445312 C 5.34375 14.023438 6.140625 14.3125 7.039062 14.3125 C 8.203125 14.300781 9.15625 13.929688 9.898438 13.199219 C 10.652344 12.488281 11.035156 11.515625 11.046875 10.277344 C 11.046875 9.722656 10.929688 9.191406 10.695312 8.683594 C 10.445312 8.179688 10.046875 7.746094 9.492188 7.382812 C 10.03125 7.015625 10.410156 6.59375 10.621094 6.125 C 10.800781 5.65625 10.894531 5.164062 10.894531 4.660156 C 10.878906 3.65625 10.535156 2.789062 9.859375 2.054688 C 9.15625 1.300781 8.203125 0.917969 7.003906 0.90625 C 6.054688 0.917969 5.242188 1.253906 4.558594 1.917969 C 3.867188 2.585938 3.472656 3.410156 3.375 4.386719 L 5.265625 4.386719 C 5.386719 3.84375 5.621094 3.445312 5.972656 3.183594 C 6.304688 2.925781 6.671875 2.796875 7.074219 2.796875 C 7.636719 2.808594 8.09375 2.984375 8.449219 3.328125 C 8.804688 3.683594 8.988281 4.140625 9 4.695312 C 9 5.246094 8.824219 5.691406 8.46875 6.035156 C 8.113281 6.390625 7.613281 6.566406 6.964844 6.566406 L 6.316406 6.566406 Z M 6.316406 8.242188 "/>
</g>
</svg>
