<?xml version="1.0" encoding="UTF-8"?>
<svg xmlns="http://www.w3.org/2000/svg" xmlns:xlink="http://www.w3.org/1999/xlink" width="15" height="15" viewBox="0 0 15 15" version="1.1">
<g id="surface1">
<path style=" stroke:none;fill-rule:nonzero;fill:rgb(0%,0%,0%);fill-opacity:1;" d="M 3.246094 14.09375 L 8.804688 14.09375 C 9.839844 14.09375 10.707031 13.75 11.398438 13.054688 C 12.097656 12.390625 12.453125 11.488281 12.46875 10.351562 C 12.46875 9.664062 12.296875 9.027344 11.949219 8.441406 C 11.582031 7.875 11.039062 7.496094 10.324219 7.308594 L 10.324219 7.273438 C 10.703125 7.09375 11.023438 6.890625 11.28125 6.667969 C 11.539062 6.457031 11.738281 6.234375 11.878906 6 C 12.148438 5.503906 12.28125 4.984375 12.269531 4.441406 C 12.269531 3.378906 11.9375 2.527344 11.28125 1.882812 C 10.628906 1.242188 9.65625 0.917969 8.359375 0.90625 L 3.246094 0.90625 Z M 8.324219 8.242188 C 9.066406 8.253906 9.609375 8.449219 9.953125 8.828125 C 10.296875 9.214844 10.46875 9.679688 10.46875 10.222656 C 10.46875 10.753906 10.296875 11.210938 9.953125 11.597656 C 9.609375 11.992188 9.066406 12.191406 8.324219 12.203125 L 5.246094 12.203125 L 5.246094 8.242188 Z M 8.132812 2.6875 C 8.863281 2.699219 9.398438 2.878906 9.742188 3.222656 C 10.09375 3.589844 10.269531 4.039062 10.269531 4.570312 C 10.269531 5.097656 10.09375 5.539062 9.742188 5.890625 C 9.398438 6.269531 8.863281 6.460938 8.132812 6.460938 L 5.246094 6.460938 L 5.246094 2.6875 Z M 8.132812 2.6875 "/>
</g>
</svg>
