<?xml version="1.0" encoding="UTF-8"?>
<svg xmlns="http://www.w3.org/2000/svg" xmlns:xlink="http://www.w3.org/1999/xlink" width="15" height="15" viewBox="0 0 15 15" version="1.1">
<g id="surface1">
<path style=" stroke:none;fill-rule:nonzero;fill:rgb(0%,0%,0%);fill-opacity:1;" d="M 10.523438 10.511719 C 9.96875 11.714844 9.128906 12.3125 8.007812 12.3125 C 7.535156 12.3125 7.132812 12.214844 6.792969 12.015625 C 6.449219 11.84375 6.171875 11.625 5.960938 11.355469 C 5.703125 11.070312 5.53125 10.699219 5.445312 10.242188 C 5.351562 9.78125 5.300781 8.90625 5.300781 7.609375 C 5.300781 6.3125 5.351562 5.429688 5.445312 4.957031 C 5.53125 4.511719 5.703125 4.148438 5.960938 3.863281 C 6.171875 3.589844 6.449219 3.367188 6.792969 3.183594 C 7.132812 3.007812 7.535156 2.917969 8.007812 2.902344 C 8.644531 2.917969 9.1875 3.101562 9.636719 3.457031 C 10.0625 3.828125 10.359375 4.28125 10.523438 4.8125 L 12.640625 4.8125 C 12.425781 3.710938 11.921875 2.785156 11.117188 2.035156 C 10.316406 1.292969 9.277344 0.917969 8.007812 0.90625 C 6.96875 0.917969 6.105469 1.164062 5.410156 1.648438 C 4.703125 2.121094 4.191406 2.664062 3.871094 3.273438 C 3.671875 3.59375 3.523438 4.015625 3.429688 4.53125 C 3.339844 5.050781 3.292969 6.078125 3.292969 7.609375 C 3.292969 9.117188 3.339844 10.136719 3.429688 10.667969 C 3.476562 10.949219 3.539062 11.183594 3.609375 11.371094 C 3.6875 11.554688 3.777344 11.742188 3.871094 11.941406 C 4.191406 12.550781 4.703125 13.089844 5.410156 13.550781 C 6.105469 14.035156 6.96875 14.289062 8.007812 14.3125 C 9.152344 14.3125 10.144531 13.988281 10.984375 13.335938 C 11.796875 12.679688 12.347656 11.738281 12.640625 10.511719 Z M 10.523438 10.511719 "/>
</g>
</svg>
