<?xml version="1.0" encoding="UTF-8"?>
<svg id="charging-station" height="15" viewBox="0 0 15 15" width="15" xmlns="http://www.w3.org/2000/svg">
  <path d="m14 4v-1.51c-.0054-.2722-.2277-.4901-.5-.49-.2816.0047-.5062.2367-.5015.5184.0002.0105.0007.0211.0015.0316v2.45c0 .5523.4477 1 1 1v5.5c0 .2761-.2239.5-.5.5s-.5-.2239-.5-.5v-2c0-.8284-.6716-1.5-1.5-1.5h-1.5v-6c0-.5523-.4477-1-1-1h-6c-.5523 0-1 .4477-1 1v11c0 .5523.4477 1 1 1h6c.5523 0 1-.4477 1-1v-4h1.5c.2761 0 .5.2239.5.5v2c0 .8284.6716 1.5 1.5 1.5s1.5-.6716 1.5-1.5v-6.5c0-.5523-.4477-1-1-1zm-5.7996 3.3995-2.6006 3.4674-.0164-.0072c-.0465.0787-.1167.1403-.2146.1403-.1476 0-.2672-.1196-.2672-.2672 0-.028.0217-.0463.0297-.0717l-.0177-.0078.7766-2.3245c.054-.1617-.0664-.3288-.2369-.3288h-1.6539c-.2058 0-.3232-.2349-.1998-.3995l2.6006-3.4674.0164.0072c.0465-.0787.1167-.1403.2146-.1403.1476 0 .2672.1196.2672.2672 0 .028-.0217.0463-.0297.0717l.0176.0078-.7764 2.3244c-.0541.1618.0663.3289.2368.3289h1.6539c.2058 0 .3232.2349.1998.3995z"/>
</svg>