<?xml version="1.0" encoding="UTF-8"?>
<svg xmlns="http://www.w3.org/2000/svg" xmlns:xlink="http://www.w3.org/1999/xlink" width="15" height="15" viewBox="0 0 15 15" version="1.1">
<g id="surface1">
<path style=" stroke:none;fill-rule:nonzero;fill:rgb(0%,0%,0%);fill-opacity:1;" d="M 3.058594 14.09375 L 7.535156 14.09375 C 8.523438 14.09375 9.359375 13.878906 10.042969 13.445312 C 10.730469 13.039062 11.265625 12.527344 11.652344 11.90625 C 11.796875 11.671875 11.921875 11.445312 12.023438 11.226562 C 12.121094 11.003906 12.191406 10.75 12.242188 10.46875 C 12.34375 9.90625 12.394531 8.917969 12.394531 7.5 C 12.394531 6.167969 12.359375 5.230469 12.296875 4.6875 C 12.210938 4.144531 12.007812 3.625 11.6875 3.128906 C 10.796875 1.660156 9.457031 0.917969 7.671875 0.90625 L 3.058594 0.90625 Z M 5.058594 2.796875 L 7.445312 2.796875 C 8.460938 2.769531 9.242188 3.140625 9.796875 3.910156 C 10.070312 4.214844 10.242188 4.617188 10.3125 5.113281 C 10.367188 5.605469 10.394531 6.425781 10.394531 7.574219 C 10.394531 8.75 10.367188 9.550781 10.3125 9.980469 C 10.253906 10.414062 10.113281 10.773438 9.886719 11.054688 C 9.382812 11.820312 8.566406 12.203125 7.445312 12.203125 L 5.058594 12.203125 Z M 5.058594 2.796875 "/>
</g>
</svg>
