<?xml version="1.0" encoding="UTF-8"?>
<svg height="15" viewBox="0 0 15 15" width="15" xmlns="http://www.w3.org/2000/svg" id="furniture">
  <path d="m8.69099 10.142v-1.642c0-.13261-.05268-.25979-.14645-.35355-.09377-.09377-.22094-.14645-.35355-.14645h-1c-.13261 0-.25979.05268-.35356.14645-.09376.09376-.14644.22094-.14644.35355v1.641c-.75987.1945-1.4456.6085-1.9715 1.1905-.52591.5819-.86868 1.3059-.9855 2.0815-.01141.0723-.00702.1462.01285.2167.01987.0704.05476.1357.10227.1914s.10651.1004.17295.1311c.06643.0307.13873.0467.21193.0468h6.92201c.0732-.0001.1455-.0161.2119-.0468.0665-.0307.1255-.0754.173-.1311s.0824-.121.1022-.1914c.0199-.0705.0243-.1444.0129-.2167-.1176-.7765-.4616-1.501-.989-2.0828-.5275-.5819-1.2148-.9952-1.97601-1.1882zm4.63901-3.863-2.5-5c-.0412-.08351-.1048-.15387-.1838-.20316s-.1701-.07556-.2632-.07584h-5.38401c-.09261.00019-.18335.02609-.2621.07483-.07875.04873-.14241.11837-.1839.20117l-2.5 5c-.03809.076-.05617.16046-.05253.24539.00363.08494.02886.16754.07331.24001.04444.07247.10663.13241.18068.17416s.15753.06393.24254.06444h8.19401v1.5c0 .13261.0527.25979.1464.35355.0938.09377.221.14645.3536.14645s.2598-.05268.3535-.14645c.0938-.09376.1465-.22094.1465-.35355v-1.5h1.194c.0847-.00059.1678-.02269.2416-.06421s.1359-.1011.1804-.17317c.0444-.07207.0699-.15425.0739-.23884s-.0135-.16882-.0509-.24478z"/>
</svg>