<?xml version="1.0" encoding="UTF-8"?>
<svg xmlns="http://www.w3.org/2000/svg" xmlns:xlink="http://www.w3.org/1999/xlink" width="15" height="15" viewBox="0 0 15 15" version="1.1">
<g id="surface1">
<path style=" stroke:none;fill-rule:nonzero;fill:rgb(0%,0%,0%);fill-opacity:1;" d="M 7.527344 8.828125 L 10.214844 8.828125 L 10.214844 9.515625 C 10.203125 10.34375 9.941406 11.011719 9.4375 11.515625 C 8.929688 12.046875 8.285156 12.3125 7.507812 12.3125 C 7.039062 12.3125 6.632812 12.214844 6.296875 12.015625 C 5.953125 11.84375 5.675781 11.625 5.464844 11.355469 C 5.203125 11.070312 5.03125 10.699219 4.949219 10.242188 C 4.851562 9.78125 4.804688 8.90625 4.804688 7.609375 C 4.804688 6.3125 4.851562 5.429688 4.949219 4.957031 C 5.03125 4.511719 5.203125 4.148438 5.464844 3.863281 C 5.675781 3.589844 5.953125 3.367188 6.296875 3.183594 C 6.632812 3.007812 7.039062 2.917969 7.507812 2.902344 C 8.148438 2.917969 8.691406 3.101562 9.136719 3.457031 C 9.566406 3.828125 9.859375 4.28125 10.023438 4.8125 L 12.140625 4.8125 C 11.929688 3.710938 11.421875 2.785156 10.621094 2.035156 C 9.820312 1.292969 8.78125 0.917969 7.507812 0.90625 C 6.472656 0.917969 5.605469 1.164062 4.914062 1.648438 C 4.207031 2.121094 3.695312 2.664062 3.375 3.273438 C 3.175781 3.59375 3.027344 4.015625 2.929688 4.53125 C 2.839844 5.050781 2.796875 6.078125 2.796875 7.609375 C 2.796875 9.117188 2.839844 10.136719 2.929688 10.667969 C 2.980469 10.949219 3.039062 11.183594 3.113281 11.371094 C 3.191406 11.554688 3.277344 11.742188 3.375 11.941406 C 3.695312 12.550781 4.207031 13.089844 4.914062 13.550781 C 5.605469 14.035156 6.472656 14.289062 7.507812 14.3125 C 8.855469 14.289062 9.96875 13.832031 10.855469 12.945312 C 11.738281 12.054688 12.1875 10.945312 12.214844 9.625 L 12.214844 6.9375 L 7.527344 6.9375 Z M 7.527344 8.828125 "/>
</g>
</svg>
