<?xml version="1.0" encoding="UTF-8"?>
<svg id="hot-spring" xmlns="http://www.w3.org/2000/svg" width="15" height="15" viewBox="0 0 15 15">
  <path d="M6.682,5.759c-.505-.725-.781-1.121-.63-2.376,.139-1.156,.678-1.616,1.198-2.059,.404-.345,.797-.68,.981-1.324,.301,.722-.036,1.47-.349,2.164-.311,.691-.599,1.329-.211,1.836,.971,1.271,1.963,2.88,.971,4.586-.214,.393-.539,.681-.861,.968-.422,.375-.841,.747-1.004,1.348-.269-.677,.008-1.366,.285-2.052,.306-.759,.61-1.516,.172-2.251-.203-.34-.389-.607-.551-.84Zm3.371-1.174c-.098-.632,.034-1.281,.368-1.809,.367-.45,.701-.642,.991-.81,.345-.199,.627-.362,.83-.877,.289,.684,0,1.188-.304,1.718-.119,.207-.24,.418-.329,.645-.191,.61,.101,.893,.467,1.247,.358,.346,.786,.76,.899,1.617,.083,.635-.036,1.156-.372,1.684-.356,.436-.681,.655-.965,.846-.356,.24-.648,.437-.856,.965-.292-.688,.031-1.259,.353-1.828,.123-.217,.246-.434,.334-.658,.073-.558-.234-.867-.581-1.217-.357-.36-.757-.763-.834-1.523Zm-8.018,0c-.098-.632,.005-1.3,.368-1.809,.376-.528,.729-.717,1.035-.881,.323-.173,.594-.318,.786-.806,.289,.683-.014,1.208-.325,1.749-.122,.212-.246,.427-.336,.655-.152,.385,.131,1.014,.501,1.242,1.002,.801,1.227,2.286,.547,3.353-.366,.448-.704,.648-.999,.823-.353,.209-.645,.382-.849,.898-.278-.656,.008-1.18,.3-1.714,.131-.24,.263-.481,.345-.737,.179-.557-.134-.884-.51-1.277-.349-.365-.752-.785-.863-1.498Zm10.965,4.414c.7,2.616-3.474,3-5.5,3s-6.2-.484-5.5-3c-.633,.316-1,.961-1,1.5,0,1.519,2.91,2.9,6.5,2.9s6.5-1.381,6.5-2.9c0-.539-.367-1.184-1-1.5Z"/>
</svg>