<?xml version="1.0" encoding="UTF-8"?>
<svg xmlns="http://www.w3.org/2000/svg" xmlns:xlink="http://www.w3.org/1999/xlink" width="15" height="15" viewBox="0 0 15 15" version="1.1">
<g id="surface1">
<path style=" stroke:none;fill-rule:nonzero;fill:rgb(0%,0%,0%);fill-opacity:1;" d="M 4.675781 11.371094 L 3.066406 12.539062 C 3.820312 13.648438 4.964844 14.222656 6.496094 14.257812 C 7.605469 14.246094 8.578125 13.867188 9.417969 13.128906 C 10.261719 12.402344 10.695312 11.378906 10.722656 10.050781 L 10.722656 0.960938 L 8.722656 0.960938 L 8.722656 9.851562 C 8.722656 10.296875 8.652344 10.667969 8.511719 10.964844 C 8.378906 11.273438 8.195312 11.519531 7.960938 11.707031 C 7.480469 12.085938 6.972656 12.269531 6.441406 12.257812 C 6.042969 12.257812 5.695312 12.164062 5.402344 11.976562 C 5.105469 11.820312 4.863281 11.621094 4.675781 11.371094 Z M 4.675781 11.371094 "/>
</g>
</svg>
