<?xml version="1.0" encoding="UTF-8"?>
<svg height="15" viewBox="0 0 15 15" width="15" xmlns="http://www.w3.org/2000/svg" id="landmark-JP">
  <path d="m9.5 4c0 .39556-.1173.78224-.33706 1.11114s-.53212.58524-.89757.73662c-.36545.15137-.76759.19098-1.15555.11381s-.74433-.26765-1.02403-.54736c-.27971-.2797-.47019-.63607-.54736-1.02403s-.03756-.79009.11381-1.15555c.15138-.36545.40772-.67781.73662-.89757s.71558-.33706 1.11114-.33706c.53043 0 1.03914.21071 1.41421.58579.37508.37507.58579.88378.58579 1.41421zm-6 4c-.39556 0-.78224.1173-1.11114.33706s-.58524.53212-.73662.89757c-.15137.36546-.19098.76757-.11381 1.15557.07717.3879.26765.7443.54736 1.024.2797.2797.63607.4702 1.02403.5474.38796.0771.7901.0375 1.15555-.1138.36545-.1514.67781-.4078.89757-.7367s.33706-.7155.33706-1.1111c0-.53043-.21071-1.03914-.58579-1.41421-.37507-.37508-.88378-.58579-1.41421-.58579zm8 0c-.3956 0-.7822.1173-1.1111.33706s-.58528.53212-.73666.89757c-.15137.36546-.19098.76757-.11381 1.15557.07717.3879.26765.7443.54737 1.024.2797.2797.6361.4702 1.024.5474.388.0771.7901.0375 1.1556-.1138.3654-.1514.6778-.4078.8975-.7367.2198-.3289.3371-.7155.3371-1.1111 0-.53043-.2107-1.03914-.5858-1.41421-.3751-.37508-.8838-.58579-1.4142-.58579z"/>
</svg>