<?xml version="1.0" encoding="UTF-8"?>
<svg height="15" viewBox="0 0 15 15" width="15" xmlns="http://www.w3.org/2000/svg" id="landuse">
  <path d="m8.911 2.85401c.02782.02324.05021.0523.06558.08512.01538.03283.02337.06863.02342.10488v3.706c0 .0663-.02634.12989-.07322.17678-.04689.04688-.11048.07322-.17678.07322h-2.5c-.0663 0-.12989-.02634-.17678-.07322-.04688-.04689-.07322-.11048-.07322-.17678v-1.75h-1v1.75c0 .0663-.02634.12989-.07322.17678-.04689.04688-.11048.07322-.17678.07322h-2.5c-.0663 0-.12989-.02634-.17678-.07322-.04688-.04689-.07322-.11048-.07322-.17678v-3.7c.00005-.03625.00804-.07205.02342-.10488.01537-.03282.03776-.06188.06558-.08512l3.254-2.728c.04413-.0370337.09989-.0573335.1575-.0573335s.11337.0202998.1575.0573335zm-1.159 5.646c-.04915.00002-.09718.01464-.138.042l-2.614 1.95799h-1v-1.99999c0-.13261-.05268-.25979-.14645-.35355-.09376-.09377-.22094-.14645-.35355-.14645s-.25979.05268-.35355.14645c-.09377.09376-.14645.22094-.14645.35355v1.99999h-1v-1.99999c0-.13261-.05268-.25979-.14645-.35355-.09376-.09377-.22094-.14645-.35355-.14645s-.25979.05268-.35355.14645c-.09377.09376-.14645.22094-.14645.35355v4.24999c0 .0663.02634.1299.07322.1768.04689.0469.11048.0732.17678.0732h6.5c.0663 0 .12989-.0263.17678-.0732.04688-.0469.07322-.1105.07322-.1768v-3.99999c.00026-.03274-.00596-.0652-.0183-.09552-.01235-.03032-.03057-.0579-.05363-.08114-.02305-.02324-.05048-.04168-.0807-.05427s-.06263-.01907-.09537-.01907zm6.248-3.255v6.49999c0 .0671-.0267.1315-.0741.1789-.0474.0475-.1118.0741-.1789.0741h-3.494c-.0668 0-.1308-.0264-.1782-.0734s-.0743-.1108-.0748-.1776v-6.49699c-.00013-.03287.0062-.06544.0188-.09583.0125-.03039.0309-.058.0541-.08124.0233-.02324.0509-.04165.0813-.05417s.0629-.01889.0958-.01876h.75v-.751c0-.06604.0262-.12937.0729-.17607s.1101-.07293.1761-.07293h1.5c.0668.00053.1306.02742.1776.07481.047.04738.0734.11144.0734.17819v.747h.755c.065 0 .1273.02581.1732.07176.046.04595.0718.10826.0718.17324zm-1 4.75499h-2v1h2zm0-1.99999h-2v1h2zm0-2h-2v1h2z"/>
</svg>