<?xml version="1.0" encoding="UTF-8"?>
<svg xmlns="http://www.w3.org/2000/svg" xmlns:xlink="http://www.w3.org/1999/xlink" width="15" height="15" viewBox="0 0 15 15" version="1.1">
<g id="surface1">
<path style=" stroke:none;fill-rule:nonzero;fill:rgb(0%,0%,0%);fill-opacity:1;" d="M 2.796875 7.609375 C 2.796875 9.117188 2.839844 10.136719 2.929688 10.667969 C 2.980469 10.949219 3.039062 11.183594 3.113281 11.371094 C 3.191406 11.554688 3.277344 11.742188 3.375 11.941406 C 3.695312 12.550781 4.207031 13.089844 4.914062 13.550781 C 5.605469 14.035156 6.472656 14.289062 7.507812 14.3125 C 8.558594 14.289062 9.433594 14.035156 10.132812 13.550781 C 10.828125 13.089844 11.328125 12.550781 11.632812 11.941406 C 11.859375 11.621094 12.011719 11.195312 12.097656 10.667969 C 12.175781 10.136719 12.214844 9.117188 12.214844 7.609375 C 12.214844 6.078125 12.175781 5.050781 12.097656 4.53125 C 12.011719 4.015625 11.859375 3.59375 11.632812 3.273438 C 11.328125 2.664062 10.828125 2.121094 10.132812 1.648438 C 9.433594 1.164062 8.558594 0.917969 7.507812 0.90625 C 6.472656 0.917969 5.605469 1.164062 4.914062 1.648438 C 4.207031 2.121094 3.695312 2.664062 3.375 3.273438 C 3.175781 3.59375 3.027344 4.015625 2.929688 4.53125 C 2.839844 5.050781 2.796875 6.078125 2.796875 7.609375 Z M 4.804688 7.609375 C 4.804688 6.3125 4.851562 5.429688 4.949219 4.957031 C 5.03125 4.511719 5.203125 4.148438 5.464844 3.863281 C 5.675781 3.589844 5.953125 3.367188 6.296875 3.183594 C 6.632812 3.007812 7.039062 2.917969 7.507812 2.902344 C 7.984375 2.917969 8.398438 3.007812 8.75 3.183594 C 9.082031 3.367188 9.34375 3.589844 9.542969 3.863281 C 9.804688 4.148438 9.980469 4.511719 10.078125 4.957031 C 10.167969 5.429688 10.214844 6.3125 10.214844 7.609375 C 10.214844 8.90625 10.167969 9.78125 10.078125 10.242188 C 9.980469 10.699219 9.804688 11.070312 9.542969 11.355469 C 9.34375 11.625 9.082031 11.84375 8.75 12.015625 C 8.398438 12.214844 7.984375 12.3125 7.507812 12.3125 C 7.039062 12.3125 6.632812 12.214844 6.296875 12.015625 C 5.953125 11.84375 5.675781 11.625 5.464844 11.355469 C 5.203125 11.070312 5.03125 10.699219 4.949219 10.242188 C 4.851562 9.78125 4.804688 8.90625 4.804688 7.609375 Z M 4.804688 7.609375 "/>
</g>
</svg>
