<?xml version="1.0" encoding="UTF-8"?>
<svg xmlns="http://www.w3.org/2000/svg" xmlns:xlink="http://www.w3.org/1999/xlink" width="15" height="15" viewBox="0 0 15 15" version="1.1">
<g id="surface1">
<path style=" stroke:none;fill-rule:nonzero;fill:rgb(0%,0%,0%);fill-opacity:1;" d="M 5.402344 2.796875 L 8.285156 2.796875 C 8.828125 2.785156 9.304688 2.90625 9.714844 3.167969 C 9.988281 3.324219 10.199219 3.539062 10.351562 3.808594 C 10.496094 4.109375 10.566406 4.480469 10.566406 4.921875 C 10.566406 5.453125 10.390625 5.933594 10.03125 6.367188 C 9.660156 6.816406 9.101562 7.042969 8.359375 7.058594 L 5.402344 7.058594 Z M 3.402344 14.09375 L 5.402344 14.09375 L 5.402344 8.949219 L 8.441406 8.949219 C 9.796875 8.921875 10.828125 8.488281 11.535156 7.644531 C 12.222656 6.84375 12.566406 5.953125 12.566406 4.976562 C 12.566406 4.253906 12.429688 3.625 12.160156 3.09375 C 11.898438 2.546875 11.5625 2.121094 11.144531 1.828125 C 10.652344 1.433594 10.164062 1.175781 9.679688 1.050781 C 9.199219 0.953125 8.695312 0.90625 8.179688 0.90625 L 3.402344 0.90625 Z M 3.402344 14.09375 "/>
</g>
</svg>
