<?xml version="1.0" encoding="UTF-8"?>
<svg height="15" viewBox="0 0 15 15" width="15" xmlns="http://www.w3.org/2000/svg" id="racetrack-boat">
  <path d="m10.0643 11.2159c.4691-.5125.9358-1.0224 1.5938-1.2417.9212-.3071 1.5902.0778 1.8665.2805.7241.531 1.3904-.2204.5914-.8064-.4269-.3131-1.4451-.86577-2.7741-.4228-.7202.2401-1.2127.7667-1.70487 1.2931-.40012.4279-.80009.8556-1.32212 1.1291-.61911.3243-1.06486-.0266-1.06486-.6352v-.0121c.00021-.7982-.40819-1.3004-1.25-1.3004-.49071 0-.99216.2582-1.50001.5-1.17511.5596-2.31799 1.2859-3.31714 2.1134-.210639.1751-.243189.4951-.06696.7066.2505.3006.58076.1621.82938-.0379.41361-.3329 1.78116-1.3913 2.93376-1.94.47652-.227.86169-.3421 1.12097-.3421.24997 0 .24997.1016.24997.3396-.00202 1.3264 1.29025 2.1428 2.52893 1.4939.50415-.2641.89557-.6917 1.28535-1.1176zm-7.56426-2.2159c1.5-1 3.25492-2 5-2 .75 0 .75.375.75.75s0 .75.75.75c2.52746 0 5.36316-3.21377 5.49996-5.5l-2.5 1-2.34195-.97445c-.61176-.20392-.92799.74476-.31623.94868l1.15818.52577-1.49996.5-4-1.25c-.23606-.07869-.38872.02744-.5.25l-1.5 3-2.00004 1zm2.5-7c0-.5523.4477-1 1-1s1 .4477 1 1-.4477 1-1 1-1-.4477-1-1z"/>
</svg>