<?xml version="1.0" encoding="UTF-8"?>
<svg xmlns="http://www.w3.org/2000/svg" xmlns:xlink="http://www.w3.org/1999/xlink" width="15" height="15" viewBox="0 0 15 15" version="1.1">
<g id="surface1">
<path style=" stroke:none;fill-rule:nonzero;fill:rgb(0%,0%,0%);fill-opacity:1;" d="M 2.8125 9.679688 C 2.824219 11.066406 3.285156 12.167969 4.1875 12.984375 C 5.074219 13.820312 6.179688 14.246094 7.5 14.257812 C 8.84375 14.246094 9.957031 13.820312 10.839844 12.984375 C 11.714844 12.167969 12.164062 11.066406 12.1875 9.679688 L 12.1875 0.960938 L 10.1875 0.960938 L 10.1875 9.464844 C 10.175781 10.363281 9.921875 11.046875 9.425781 11.515625 C 8.921875 12.011719 8.277344 12.257812 7.5 12.257812 C 6.722656 12.257812 6.085938 12.011719 5.589844 11.515625 C 5.085938 11.046875 4.824219 10.363281 4.8125 9.464844 L 4.8125 0.960938 L 2.8125 0.960938 Z M 2.8125 9.679688 "/>
</g>
</svg>
