<?xml version="1.0" encoding="UTF-8"?>
<svg xmlns="http://www.w3.org/2000/svg" xmlns:xlink="http://www.w3.org/1999/xlink" width="15" height="15" viewBox="0 0 15 15" version="1.1">
<g id="surface1">
<path style=" stroke:none;fill-rule:nonzero;fill:rgb(0%,0%,0%);fill-opacity:1;" d="M 3.980469 8.089844 L 5.761719 8.089844 C 5.984375 7.683594 6.238281 7.402344 6.523438 7.238281 C 6.804688 7.082031 7.121094 7.003906 7.464844 7.003906 C 7.851562 7.003906 8.171875 7.058594 8.433594 7.164062 C 8.691406 7.296875 8.886719 7.476562 9.019531 7.699219 C 9.265625 8.167969 9.386719 8.78125 9.371094 9.535156 C 9.371094 9.84375 9.367188 10.160156 9.355469 10.484375 C 9.332031 10.816406 9.265625 11.125 9.15625 11.410156 C 9.054688 11.691406 8.871094 11.921875 8.613281 12.097656 C 8.339844 12.277344 7.980469 12.367188 7.527344 12.367188 C 6.472656 12.355469 5.839844 11.84375 5.636719 10.828125 L 3.746094 10.828125 C 3.925781 12.042969 4.394531 12.917969 5.148438 13.460938 C 5.890625 13.992188 6.707031 14.257812 7.597656 14.257812 C 8.261719 14.246094 8.835938 14.09375 9.320312 13.796875 C 9.8125 13.511719 10.191406 13.199219 10.449219 12.855469 C 10.746094 12.507812 10.957031 12.105469 11.082031 11.652344 C 11.203125 11.195312 11.261719 10.535156 11.261719 9.679688 C 11.261719 9.125 11.246094 8.65625 11.210938 8.277344 C 11.171875 7.902344 11.113281 7.585938 11.027344 7.328125 C 10.867188 6.851562 10.601562 6.433594 10.230469 6.070312 C 9.984375 5.800781 9.664062 5.570312 9.265625 5.382812 C 8.84375 5.214844 8.378906 5.125 7.871094 5.113281 C 7.082031 5.113281 6.378906 5.351562 5.761719 5.835938 L 5.761719 2.851562 L 11.011719 2.851562 L 11.011719 0.960938 L 3.980469 0.960938 Z M 3.980469 8.089844 "/>
</g>
</svg>
