<?xml version="1.0" encoding="UTF-8"?>
<svg xmlns="http://www.w3.org/2000/svg" xmlns:xlink="http://www.w3.org/1999/xlink" width="15" height="15" viewBox="0 0 15 15" version="1.1">
<g id="surface1">
<path style=" stroke:none;fill-rule:nonzero;fill:rgb(0%,0%,0%);fill-opacity:1;" d="M 9.933594 0.921875 C 9.941406 0.921875 9.910156 0.988281 9.84375 1.121094 C 9.78125 1.25 9.699219 1.421875 9.589844 1.648438 C 9.480469 1.871094 9.355469 2.125 9.210938 2.414062 C 9.066406 2.703125 8.910156 3.007812 8.75 3.328125 C 8.589844 3.648438 8.429688 3.972656 8.261719 4.296875 C 8.097656 4.621094 7.9375 4.933594 7.78125 5.230469 C 7.628906 5.523438 7.492188 5.792969 7.363281 6.035156 C 7.238281 6.277344 7.132812 6.46875 7.046875 6.613281 C 7.222656 6.511719 7.417969 6.449219 7.636719 6.433594 C 7.859375 6.410156 8.113281 6.402344 8.40625 6.414062 C 8.820312 6.425781 9.183594 6.5 9.492188 6.632812 C 9.804688 6.765625 10.074219 6.929688 10.296875 7.128906 C 10.519531 7.328125 10.703125 7.550781 10.847656 7.796875 C 11 8.039062 11.117188 8.277344 11.199219 8.511719 C 11.285156 8.742188 11.34375 8.960938 11.371094 9.164062 C 11.410156 9.363281 11.425781 9.519531 11.425781 9.636719 C 11.425781 9.671875 11.425781 9.738281 11.425781 9.835938 C 11.425781 9.929688 11.425781 10.039062 11.425781 10.160156 C 11.425781 10.273438 11.421875 10.390625 11.417969 10.511719 C 11.417969 10.632812 11.414062 10.734375 11.410156 10.820312 C 11.402344 10.863281 11.382812 10.972656 11.34375 11.15625 C 11.316406 11.328125 11.253906 11.539062 11.164062 11.789062 C 11.078125 12.03125 10.957031 12.292969 10.792969 12.574219 C 10.628906 12.851562 10.417969 13.117188 10.152344 13.371094 C 9.886719 13.617188 9.5625 13.832031 9.183594 14.015625 C 8.804688 14.195312 8.351562 14.304688 7.824219 14.347656 C 7.277344 14.398438 6.792969 14.359375 6.367188 14.238281 C 5.945312 14.121094 5.582031 13.949219 5.273438 13.722656 C 4.96875 13.5 4.710938 13.246094 4.503906 12.957031 C 4.300781 12.660156 4.136719 12.359375 4.015625 12.050781 C 3.902344 11.742188 3.824219 11.449219 3.78125 11.164062 C 3.746094 10.878906 3.738281 10.640625 3.761719 10.441406 C 3.800781 10.144531 3.839844 9.882812 3.882812 9.652344 C 3.921875 9.417969 3.972656 9.195312 4.027344 8.984375 C 4.085938 8.773438 4.152344 8.566406 4.226562 8.359375 C 4.296875 8.15625 4.382812 7.929688 4.476562 7.691406 C 4.503906 7.628906 4.570312 7.488281 4.675781 7.265625 C 4.785156 7.035156 4.917969 6.753906 5.074219 6.421875 C 5.238281 6.089844 5.417969 5.726562 5.617188 5.328125 C 5.816406 4.929688 6.015625 4.527344 6.214844 4.117188 C 6.6875 3.164062 7.214844 2.097656 7.796875 0.921875 Z M 9.554688 10.574219 C 9.554688 10.347656 9.542969 10.09375 9.527344 9.816406 C 9.507812 9.539062 9.4375 9.277344 9.320312 9.027344 C 9.203125 8.777344 9.015625 8.558594 8.75 8.378906 C 8.484375 8.195312 8.105469 8.089844 7.617188 8.050781 C 7.386719 8.035156 7.179688 8.058594 6.992188 8.125 C 6.804688 8.191406 6.640625 8.28125 6.496094 8.394531 C 6.351562 8.511719 6.222656 8.644531 6.117188 8.792969 C 6.011719 8.9375 5.925781 9.082031 5.851562 9.226562 C 5.785156 9.371094 5.738281 9.507812 5.707031 9.636719 C 5.679688 9.753906 5.664062 9.847656 5.664062 9.914062 C 5.664062 10.066406 5.667969 10.234375 5.671875 10.421875 C 5.679688 10.601562 5.695312 10.785156 5.726562 10.972656 C 5.761719 11.15625 5.820312 11.332031 5.898438 11.507812 C 5.976562 11.675781 6.089844 11.828125 6.234375 11.960938 C 6.378906 12.09375 6.5625 12.203125 6.785156 12.285156 C 7.015625 12.371094 7.296875 12.414062 7.636719 12.414062 C 7.90625 12.417969 8.140625 12.386719 8.339844 12.3125 C 8.546875 12.234375 8.71875 12.136719 8.855469 12.023438 C 9 11.902344 9.121094 11.769531 9.210938 11.625 C 9.300781 11.480469 9.371094 11.339844 9.417969 11.199219 C 9.472656 11.0625 9.507812 10.9375 9.527344 10.828125 C 9.542969 10.714844 9.554688 10.628906 9.554688 10.574219 Z M 9.554688 10.574219 "/>
</g>
</svg>
