<?xml version="1.0" encoding="UTF-8"?>
<svg xmlns="http://www.w3.org/2000/svg" xmlns:xlink="http://www.w3.org/1999/xlink" width="15" height="15" viewBox="0 0 15 15" version="1.1">
<g id="surface1">
<path style=" stroke:none;fill-rule:nonzero;fill:rgb(0%,0%,0%);fill-opacity:1;" d="M 5.617188 4.675781 C 5.628906 4.050781 5.828125 3.578125 6.207031 3.257812 C 6.582031 2.949219 7.011719 2.796875 7.5 2.796875 C 8.007812 2.796875 8.445312 2.949219 8.820312 3.257812 C 9.1875 3.578125 9.378906 4.050781 9.390625 4.675781 C 9.378906 5.285156 9.1875 5.75 8.820312 6.070312 C 8.445312 6.402344 8.007812 6.566406 7.5 6.566406 C 7.011719 6.566406 6.582031 6.402344 6.207031 6.070312 C 5.828125 5.75 5.628906 5.285156 5.617188 4.675781 Z M 3.484375 10.351562 C 3.496094 11.539062 3.894531 12.488281 4.6875 13.199219 C 5.441406 13.929688 6.378906 14.300781 7.5 14.3125 C 8.628906 14.300781 9.582031 13.929688 10.359375 13.199219 C 11.125 12.488281 11.515625 11.539062 11.527344 10.351562 C 11.515625 9.078125 10.996094 8.089844 9.96875 7.382812 C 10.363281 7.039062 10.679688 6.644531 10.929688 6.195312 C 11.164062 5.78125 11.28125 5.285156 11.28125 4.714844 C 11.269531 3.617188 10.910156 2.707031 10.203125 1.992188 C 9.503906 1.277344 8.605469 0.917969 7.5 0.90625 C 6.414062 0.917969 5.527344 1.277344 4.839844 1.992188 C 4.109375 2.707031 3.738281 3.617188 3.726562 4.714844 C 3.726562 5.285156 3.855469 5.78125 4.117188 6.195312 C 4.339844 6.644531 4.648438 7.039062 5.039062 7.382812 C 4.015625 8.089844 3.496094 9.078125 3.484375 10.351562 Z M 5.375 10.332031 C 5.386719 9.714844 5.601562 9.214844 6.023438 8.828125 C 6.429688 8.449219 6.921875 8.253906 7.5 8.242188 C 8.097656 8.253906 8.597656 8.449219 9 8.828125 C 9.410156 9.214844 9.621094 9.714844 9.636719 10.332031 C 9.621094 10.933594 9.410156 11.429688 9 11.816406 C 8.597656 12.21875 8.097656 12.421875 7.5 12.421875 C 6.921875 12.421875 6.429688 12.21875 6.023438 11.816406 C 5.601562 11.429688 5.386719 10.933594 5.375 10.332031 Z M 5.375 10.332031 "/>
</g>
</svg>
