<?xml version="1.0" encoding="UTF-8"?>
<svg xmlns="http://www.w3.org/2000/svg" xmlns:xlink="http://www.w3.org/1999/xlink" width="15" height="15" viewBox="0 0 15 15" version="1.1">
<g id="surface1">
<path style=" stroke:none;fill-rule:nonzero;fill:rgb(0%,0%,0%);fill-opacity:1;" d="M 5.011719 14.160156 C 5.007812 14.160156 5.058594 14.050781 5.164062 13.832031 C 5.273438 13.609375 5.417969 13.324219 5.589844 12.972656 C 5.765625 12.625 5.960938 12.234375 6.179688 11.804688 C 6.394531 11.378906 6.609375 10.957031 6.820312 10.539062 C 7.03125 10.125 7.230469 9.742188 7.410156 9.390625 C 7.597656 9.039062 7.746094 8.765625 7.863281 8.566406 C 7.6875 8.671875 7.488281 8.734375 7.265625 8.757812 C 7.046875 8.777344 6.792969 8.777344 6.503906 8.765625 C 6.105469 8.753906 5.757812 8.683594 5.457031 8.550781 C 5.160156 8.417969 4.902344 8.25 4.6875 8.050781 C 4.46875 7.851562 4.289062 7.632812 4.144531 7.390625 C 4 7.144531 3.882812 6.90625 3.789062 6.675781 C 3.707031 6.441406 3.644531 6.222656 3.601562 6.023438 C 3.566406 5.820312 3.546875 5.660156 3.546875 5.546875 C 3.546875 5.507812 3.542969 5.441406 3.539062 5.347656 C 3.539062 5.25 3.539062 5.144531 3.539062 5.03125 C 3.539062 4.910156 3.539062 4.789062 3.539062 4.667969 C 3.542969 4.546875 3.550781 4.445312 3.566406 4.359375 C 3.570312 4.320312 3.589844 4.214844 3.617188 4.042969 C 3.65625 3.867188 3.71875 3.660156 3.808594 3.417969 C 3.898438 3.179688 4.027344 2.921875 4.1875 2.652344 C 4.351562 2.375 4.5625 2.113281 4.820312 1.871094 C 5.085938 1.632812 5.410156 1.421875 5.789062 1.25 C 6.175781 1.074219 6.632812 0.960938 7.15625 0.914062 C 7.703125 0.867188 8.1875 0.898438 8.605469 1.011719 C 9.027344 1.128906 9.386719 1.292969 9.6875 1.511719 C 9.992188 1.726562 10.242188 1.980469 10.441406 2.269531 C 10.640625 2.558594 10.792969 2.855469 10.902344 3.15625 C 11.015625 3.453125 11.089844 3.742188 11.128906 4.027344 C 11.164062 4.304688 11.171875 4.542969 11.144531 4.742188 C 11.109375 5.035156 11.070312 5.300781 11.027344 5.535156 C 10.984375 5.765625 10.933594 5.984375 10.875 6.195312 C 10.820312 6.410156 10.757812 6.617188 10.683594 6.820312 C 10.613281 7.027344 10.527344 7.25 10.429688 7.492188 C 10.40625 7.558594 10.339844 7.703125 10.230469 7.925781 C 10.128906 8.148438 9.996094 8.421875 9.835938 8.75 C 9.675781 9.066406 9.503906 9.425781 9.308594 9.824219 C 9.121094 10.21875 8.929688 10.613281 8.730469 11.011719 C 8.265625 11.949219 7.746094 13 7.175781 14.160156 Z M 5.417969 4.605469 C 5.417969 4.839844 5.429688 5.097656 5.457031 5.382812 C 5.480469 5.667969 5.550781 5.933594 5.664062 6.1875 C 5.785156 6.433594 5.972656 6.648438 6.222656 6.832031 C 6.476562 7.003906 6.832031 7.105469 7.292969 7.128906 C 7.519531 7.140625 7.730469 7.113281 7.917969 7.046875 C 8.101562 6.976562 8.269531 6.882812 8.414062 6.765625 C 8.558594 6.652344 8.683594 6.523438 8.785156 6.378906 C 8.894531 6.234375 8.980469 6.089844 9.046875 5.953125 C 9.121094 5.808594 9.171875 5.675781 9.199219 5.554688 C 9.230469 5.433594 9.246094 5.335938 9.246094 5.265625 C 9.238281 5.113281 9.234375 4.945312 9.226562 4.757812 C 9.226562 4.570312 9.210938 4.382812 9.171875 4.1875 C 9.144531 3.996094 9.089844 3.8125 9.011719 3.636719 C 8.933594 3.457031 8.820312 3.300781 8.675781 3.167969 C 8.53125 3.035156 8.34375 2.929688 8.113281 2.859375 C 7.890625 2.78125 7.613281 2.75 7.273438 2.769531 C 6.898438 2.785156 6.59375 2.878906 6.351562 3.050781 C 6.117188 3.21875 5.929688 3.40625 5.789062 3.609375 C 5.652344 3.816406 5.554688 4.015625 5.5 4.207031 C 5.445312 4.398438 5.417969 4.53125 5.417969 4.605469 Z M 5.417969 4.605469 "/>
</g>
</svg>
