<?xml version="1.0" encoding="UTF-8"?>
<svg xmlns="http://www.w3.org/2000/svg" xmlns:xlink="http://www.w3.org/1999/xlink" width="15" height="15" viewBox="0 0 15 15" version="1.1">
<g id="surface1">
<path style=" stroke:none;fill-rule:nonzero;fill:rgb(0%,0%,0%);fill-opacity:1;" d="M 8.984375 11.941406 C 8.617188 12.25 8.125 12.402344 7.507812 12.402344 C 7.039062 12.402344 6.632812 12.304688 6.296875 12.105469 C 5.953125 11.9375 5.675781 11.714844 5.464844 11.445312 C 5.203125 11.160156 5.03125 10.789062 4.949219 10.332031 C 4.851562 9.875 4.804688 8.996094 4.804688 7.699219 C 4.804688 6.402344 4.851562 5.519531 4.949219 5.046875 C 5.03125 4.601562 5.203125 4.238281 5.464844 3.953125 C 5.675781 3.683594 5.953125 3.457031 6.296875 3.273438 C 6.632812 3.101562 7.039062 3.007812 7.507812 2.996094 C 7.984375 3.007812 8.398438 3.101562 8.75 3.273438 C 9.082031 3.457031 9.34375 3.683594 9.542969 3.953125 C 9.804688 4.238281 9.980469 4.601562 10.078125 5.046875 C 10.167969 5.519531 10.214844 6.402344 10.214844 7.699219 C 10.214844 9.09375 10.152344 10.011719 10.023438 10.457031 L 8.484375 9.238281 L 7.300781 10.601562 Z M 10.621094 13.253906 L 12.285156 14.59375 L 13.472656 13.21875 L 11.734375 11.832031 C 11.914062 11.53125 12.042969 11.109375 12.121094 10.566406 C 12.183594 10.023438 12.214844 9.066406 12.214844 7.699219 C 12.214844 6.167969 12.175781 5.140625 12.097656 4.621094 C 12.011719 4.105469 11.859375 3.683594 11.632812 3.367188 C 11.328125 2.757812 10.828125 2.214844 10.132812 1.738281 C 9.433594 1.253906 8.558594 1.007812 7.507812 0.996094 C 6.472656 1.007812 5.605469 1.253906 4.914062 1.738281 C 4.207031 2.214844 3.695312 2.757812 3.375 3.367188 C 3.175781 3.683594 3.027344 4.105469 2.929688 4.621094 C 2.839844 5.140625 2.796875 6.167969 2.796875 7.699219 C 2.796875 9.207031 2.839844 10.226562 2.929688 10.757812 C 2.980469 11.039062 3.039062 11.277344 3.113281 11.460938 C 3.191406 11.644531 3.277344 11.832031 3.375 12.03125 C 3.695312 12.640625 4.207031 13.179688 4.914062 13.644531 C 5.605469 14.125 6.472656 14.378906 7.507812 14.402344 C 8.804688 14.378906 9.84375 13.996094 10.621094 13.253906 Z M 10.621094 13.253906 "/>
</g>
</svg>
