<?xml version="1.0" encoding="UTF-8"?>
<svg xmlns="http://www.w3.org/2000/svg" xmlns:xlink="http://www.w3.org/1999/xlink" width="15" height="15" viewBox="0 0 15 15" version="1.1">
<g id="surface1">
<path style=" stroke:none;fill-rule:nonzero;fill:rgb(0%,0%,0%);fill-opacity:1;" d="M 5.246094 2.6875 L 8.378906 2.6875 C 9.015625 2.6875 9.503906 2.824219 9.84375 3.09375 C 10.269531 3.402344 10.492188 3.898438 10.503906 4.585938 C 10.503906 5.160156 10.320312 5.640625 9.953125 6.035156 C 9.578125 6.457031 9.015625 6.671875 8.269531 6.6875 L 5.246094 6.6875 Z M 3.246094 14.09375 L 5.246094 14.09375 L 5.246094 8.460938 L 7.796875 8.460938 L 10.523438 14.09375 L 12.902344 14.09375 L 9.84375 8.242188 C 11.519531 7.597656 12.371094 6.378906 12.394531 4.585938 C 12.359375 3.367188 11.921875 2.429688 11.082031 1.773438 C 10.390625 1.195312 9.492188 0.90625 8.394531 0.90625 L 3.246094 0.90625 Z M 3.246094 14.09375 "/>
</g>
</svg>
