<?xml version="1.0" encoding="UTF-8"?>
<svg xmlns="http://www.w3.org/2000/svg" xmlns:xlink="http://www.w3.org/1999/xlink" width="15" height="15" viewBox="0 0 15 15" version="1.1">
<g id="surface1">
<path style=" stroke:none;fill-rule:nonzero;fill:rgb(0%,0%,0%);fill-opacity:1;" d="M 3.746094 11 L 2.433594 12.503906 C 3.839844 13.710938 5.519531 14.3125 7.472656 14.3125 C 10.496094 14.277344 12.039062 12.996094 12.105469 10.476562 C 12.105469 9.542969 11.8125 8.722656 11.226562 8.015625 C 10.636719 7.296875 9.722656 6.855469 8.484375 6.6875 C 7.859375 6.605469 7.363281 6.539062 7.003906 6.476562 C 6.351562 6.355469 5.878906 6.140625 5.582031 5.828125 C 5.285156 5.519531 5.140625 5.175781 5.140625 4.796875 C 5.152344 4.160156 5.371094 3.683594 5.800781 3.367188 C 6.210938 3.058594 6.722656 2.902344 7.335938 2.902344 C 8.523438 2.929688 9.613281 3.265625 10.601562 3.917969 L 11.714844 2.269531 C 10.503906 1.394531 9.078125 0.941406 7.4375 0.90625 C 6.074219 0.917969 5.019531 1.273438 4.277344 1.972656 C 3.511719 2.679688 3.128906 3.605469 3.128906 4.757812 C 3.128906 5.71875 3.433594 6.53125 4.042969 7.203125 C 4.636719 7.851562 5.496094 8.273438 6.632812 8.460938 C 7.265625 8.550781 7.847656 8.632812 8.378906 8.703125 C 9.535156 8.902344 10.109375 9.492188 10.097656 10.476562 C 10.074219 11.675781 9.203125 12.289062 7.492188 12.3125 C 6.042969 12.300781 4.796875 11.863281 3.746094 11 Z M 3.746094 11 "/>
</g>
</svg>
